# xmcd
#
# Track frame offsets: 
#        150
#        23240
#        39054
#        57245
#        74893
#        93244
#        110754
#        124247
#        135075
#        149506
#        165849
#        185635
#        202353
#        217908
#        235468
#
# Disc length: 3352 seconds
#
# Revision: 5
# Processed by: cddbd v1.5.2PL0 Copyright (c) Steve Scherf et al.
# Submitted via: ExactAudioCopy v0.99pb5
#
DISCID=de0d160f
DTITLE=Various Artist - Classic Country - TL 626-38 - New Frontiers - CD 2
DYEAR=2003
DGENRE=Country
TTITLE0=Clay Walker - The chain of love
TTITLE1=Eric Heatherly - Flowers on the wall
TTITLE2=Mindy McCready - You'll never know
TTITLE3=Clint Black - Nothin' but the taillights
TTITLE4=Kenny Chesney - That's why I'm here
TTITLE5=Chely Wright - It was
TTITLE6=Tracy Lawrence - Lessons learned
TTITLE7=Diamond Rio - Unbelievable
TTITLE8=Keith Harling - There goes the neighborhood
TTITLE9=Mark Wills - Don't laugh at me
TTITLE10=Sammy Kershaw - Love of my life
TTITLE11=Collin Raye - Couldn't last a moment
TTITLE12=Deana Carter - Count me in
TTITLE13=John Michael Montgomery - The little girl
TTITLE14=Tracy Byrd - I'm from the country
EXTD=
EXTT0=
EXTT1=
EXTT2=
EXTT3=
EXTT4=
EXTT5=
EXTT6=
EXTT7=
EXTT8=
EXTT9=
EXTT10=
EXTT11=
EXTT12=
EXTT13=
EXTT14=
PLAYORDER=
